<?xml version="1.0" encoding="utf-8"?>
<!-- Generator: Adobe Illustrator 16.0.0, SVG Export Plug-In . SVG Version: 6.00 Build 0)  -->
<!DOCTYPE svg PUBLIC "-//W3C//DTD SVG 1.1//EN" "http://www.w3.org/Graphics/SVG/1.1/DTD/svg11.dtd">
<svg version="1.1" id="Capa_1" xmlns="http://www.w3.org/2000/svg" xmlns:xlink="http://www.w3.org/1999/xlink" x="0px" y="0px"
	 width="122.556px" height="122.556px" viewBox="0 0 122.556 122.556" enable-background="new 0 0 122.556 122.556"
	 xml:space="preserve">
<g>
	<circle fill="#FFFFFF" cx="61.278" cy="61.278" r="58.647"/>
	<path fill="#44AE77" d="M104.199,17.81C92.738,6.319,77.474,0,61.252,0C27.769,0,0.521,27.248,0.521,60.731
		c0,10.694,2.789,21.145,8.097,30.364L0,122.556l32.198-8.454c8.863,4.843,18.85,7.386,29.024,7.386h0.029
		c33.455,0,61.304-27.246,61.304-60.73C122.556,44.538,115.664,29.297,104.199,17.81z M61.252,111.257
		c-9.084,0-17.975-2.434-25.715-7.031l-1.832-1.093l-19.094,5.007l5.086-18.629l-1.203-1.916
		c-5.059-8.043-7.713-17.316-7.713-26.864c0-27.821,22.65-50.471,50.498-50.471c13.486,0,26.152,5.251,35.673,14.8
		c9.52,9.547,15.373,22.213,15.346,35.698C112.294,88.606,89.072,111.257,61.252,111.257z M83.875,78.519
		c-1.504-0.764-8.973-4.432-10.369-4.924c-1.396-0.52-2.408-0.766-3.42,0.766c-1.012,1.533-3.914,4.925-4.82,5.963
		c-0.873,1.013-1.775,1.152-3.283,0.383c-8.916-4.459-14.769-7.961-20.651-18.054c-1.562-2.683,1.56-2.491,4.46-8.292
		c0.49-1.012,0.248-1.886-0.137-2.652c-0.385-0.766-3.42-8.233-4.679-11.271c-1.229-2.956-2.49-2.544-3.419-2.6
		c-0.875-0.055-1.889-0.055-2.9-0.055c-1.013,0-2.652,0.385-4.048,1.887c-1.396,1.532-5.308,5.197-5.308,12.668
		c0,7.466,5.445,14.693,6.182,15.702c0.768,1.016,10.697,16.336,25.934,22.928c9.632,4.156,13.41,4.511,18.226,3.803
		c2.926-0.439,8.973-3.669,10.23-7.224c1.258-3.556,1.258-6.593,0.879-7.222C86.392,79.642,85.376,79.257,83.875,78.519z"/>
	<g>
		<path fill="#44AE77" d="M72.382,38.354c0.996,0,1.828,0.631,2.092,1.593l5.475,19.65c0.268,0.963-0.232,1.591-1.229,1.591h-2.621
			c-0.799,0-1.463-0.527-1.66-1.293l-0.928-3.484h-7.834l-0.932,3.484c-0.197,0.766-0.863,1.293-1.658,1.293h-2.624
			c-0.995,0-1.493-0.629-1.228-1.591l5.476-19.65c0.266-0.962,1.098-1.593,2.092-1.593H72.382z M69.962,43.002H69.23l-2.324,8.795
			h5.381L69.962,43.002z"/>
		<path fill="#44AE77" d="M81.271,40.016c0-0.996,0.662-1.662,1.658-1.662h7.9c0.994,0,1.658,0.666,1.658,1.662v1.493
			c0,0.995-0.664,1.657-1.658,1.657h-1.162v13.209h1.162c0.994,0,1.658,0.667,1.658,1.662v1.491c0,0.998-0.664,1.66-1.658,1.66h-7.9
			c-0.996,0-1.658-0.666-1.658-1.66v-1.491c0-0.995,0.662-1.657,1.658-1.657h1.158V43.17h-1.158c-0.996,0-1.658-0.664-1.658-1.659
			V40.016z"/>
	</g>
</g>
</svg>
